<mxfile host="app.diagrams.net" modified="2022-03-25T12:08:52.870Z" agent="5.0 (Macintosh; Intel Mac OS X 10_15_7) AppleWebKit/537.36 (KHTML, like Gecko) Chrome/99.0.4844.83 Safari/537.36" etag="onO9rJUjQd6Xso9FA3ki" version="17.2.1" type="github">
  <diagram id="0I4Yx42l0y2RoW9GGamC" name="Page-1">
    <mxGraphModel dx="1185" dy="688" grid="1" gridSize="10" guides="1" tooltips="1" connect="1" arrows="1" fold="1" page="1" pageScale="1" pageWidth="827" pageHeight="1169" math="0" shadow="0">
      <root>
        <mxCell id="0" />
        <mxCell id="1" parent="0" />
        <mxCell id="rhkpsvwqHkgdm5iYqyDg-1" value="1" style="rounded=0;whiteSpace=wrap;html=1;fontSize=16;" vertex="1" parent="1">
          <mxGeometry x="106.99774266365688" y="240" width="35.66591422121896" height="40" as="geometry" />
        </mxCell>
        <mxCell id="rhkpsvwqHkgdm5iYqyDg-2" value="" style="endArrow=classic;html=1;rounded=0;entryX=0;entryY=0;entryDx=0;entryDy=0;fontSize=16;" edge="1" parent="1">
          <mxGeometry width="50" height="50" relative="1" as="geometry">
            <mxPoint x="120.37246049661394" y="210" as="sourcePoint" />
            <mxPoint x="120.37246049661394" y="240" as="targetPoint" />
          </mxGeometry>
        </mxCell>
        <mxCell id="rhkpsvwqHkgdm5iYqyDg-3" value="head" style="text;html=1;align=center;verticalAlign=middle;resizable=0;points=[];autosize=1;strokeColor=#6c8ebf;fillColor=#dae8fc;fontSize=16;gradientColor=#7ea6e0;" vertex="1" parent="1">
          <mxGeometry x="98.08126410835214" y="190" width="50" height="20" as="geometry" />
        </mxCell>
        <mxCell id="rhkpsvwqHkgdm5iYqyDg-4" value="2" style="rounded=0;whiteSpace=wrap;html=1;fontSize=16;" vertex="1" parent="1">
          <mxGeometry x="178.3295711060948" y="240" width="35.66591422121896" height="40" as="geometry" />
        </mxCell>
        <mxCell id="rhkpsvwqHkgdm5iYqyDg-5" style="edgeStyle=orthogonalEdgeStyle;rounded=0;orthogonalLoop=1;jettySize=auto;html=1;entryX=0;entryY=0.5;entryDx=0;entryDy=0;fontSize=16;" edge="1" parent="1" source="rhkpsvwqHkgdm5iYqyDg-1" target="rhkpsvwqHkgdm5iYqyDg-4">
          <mxGeometry relative="1" as="geometry" />
        </mxCell>
        <mxCell id="rhkpsvwqHkgdm5iYqyDg-6" value="" style="shape=curlyBracket;whiteSpace=wrap;html=1;rounded=1;flipH=1;fontSize=16;rotation=90;" vertex="1" parent="1">
          <mxGeometry x="325.99" y="75" width="17.83" height="430" as="geometry" />
        </mxCell>
        <mxCell id="rhkpsvwqHkgdm5iYqyDg-7" value="young 区域" style="text;html=1;align=center;verticalAlign=middle;resizable=0;points=[];autosize=1;strokeColor=#6c8ebf;fillColor=#dae8fc;fontSize=16;gradientColor=#7ea6e0;" vertex="1" parent="1">
          <mxGeometry x="288.8273137697517" y="306" width="100" height="20" as="geometry" />
        </mxCell>
        <mxCell id="rhkpsvwqHkgdm5iYqyDg-8" value="old 区域" style="text;html=1;align=center;verticalAlign=middle;resizable=0;points=[];autosize=1;strokeColor=#d79b00;fillColor=#ffcd28;fontSize=16;gradientColor=#ffa500;" vertex="1" parent="1">
          <mxGeometry x="663.2965011286682" y="310" width="70" height="20" as="geometry" />
        </mxCell>
        <mxCell id="rhkpsvwqHkgdm5iYqyDg-9" style="edgeStyle=orthogonalEdgeStyle;rounded=0;orthogonalLoop=1;jettySize=auto;html=1;entryX=0;entryY=0.5;entryDx=0;entryDy=0;fontSize=16;" edge="1" parent="1" source="rhkpsvwqHkgdm5iYqyDg-10">
          <mxGeometry relative="1" as="geometry">
            <mxPoint x="320.9932279909706" y="260" as="targetPoint" />
          </mxGeometry>
        </mxCell>
        <mxCell id="rhkpsvwqHkgdm5iYqyDg-10" value="3" style="rounded=0;whiteSpace=wrap;html=1;fontSize=16;" vertex="1" parent="1">
          <mxGeometry x="249.66139954853273" y="240" width="35.66591422121896" height="40" as="geometry" />
        </mxCell>
        <mxCell id="rhkpsvwqHkgdm5iYqyDg-11" style="edgeStyle=orthogonalEdgeStyle;rounded=0;orthogonalLoop=1;jettySize=auto;html=1;entryX=0;entryY=0.5;entryDx=0;entryDy=0;fontSize=16;" edge="1" parent="1" source="rhkpsvwqHkgdm5iYqyDg-4" target="rhkpsvwqHkgdm5iYqyDg-10">
          <mxGeometry relative="1" as="geometry" />
        </mxCell>
        <mxCell id="rhkpsvwqHkgdm5iYqyDg-12" value="8" style="rounded=0;whiteSpace=wrap;html=1;fontSize=16;" vertex="1" parent="1">
          <mxGeometry x="607.2121896162528" y="240" width="35.66591422121896" height="40" as="geometry" />
        </mxCell>
        <mxCell id="rhkpsvwqHkgdm5iYqyDg-13" value="" style="endArrow=classic;html=1;rounded=0;entryX=0;entryY=0;entryDx=0;entryDy=0;fontSize=16;" edge="1" parent="1">
          <mxGeometry width="50" height="50" relative="1" as="geometry">
            <mxPoint x="552.8216704288939" y="210" as="sourcePoint" />
            <mxPoint x="552.8216704288939" y="240" as="targetPoint" />
          </mxGeometry>
        </mxCell>
        <mxCell id="rhkpsvwqHkgdm5iYqyDg-14" value="tail" style="text;html=1;align=center;verticalAlign=middle;resizable=0;points=[];autosize=1;strokeColor=#6c8ebf;fillColor=#dae8fc;fontSize=16;gradientColor=#7ea6e0;" vertex="1" parent="1">
          <mxGeometry x="534.9887133182843" y="190" width="40" height="20" as="geometry" />
        </mxCell>
        <mxCell id="rhkpsvwqHkgdm5iYqyDg-15" value="8" style="rounded=0;whiteSpace=wrap;html=1;fontSize=16;" vertex="1" parent="1">
          <mxGeometry x="678.5440180586907" y="240" width="35.66591422121896" height="40" as="geometry" />
        </mxCell>
        <mxCell id="rhkpsvwqHkgdm5iYqyDg-16" style="edgeStyle=orthogonalEdgeStyle;rounded=0;orthogonalLoop=1;jettySize=auto;html=1;entryX=0;entryY=0.5;entryDx=0;entryDy=0;fontSize=16;" edge="1" parent="1" source="rhkpsvwqHkgdm5iYqyDg-12" target="rhkpsvwqHkgdm5iYqyDg-15">
          <mxGeometry relative="1" as="geometry" />
        </mxCell>
        <mxCell id="rhkpsvwqHkgdm5iYqyDg-17" style="edgeStyle=orthogonalEdgeStyle;rounded=0;orthogonalLoop=1;jettySize=auto;html=1;entryX=0;entryY=0.5;entryDx=0;entryDy=0;fontSize=16;" edge="1" parent="1" target="rhkpsvwqHkgdm5iYqyDg-18">
          <mxGeometry relative="1" as="geometry">
            <mxPoint x="714.2099322799097" y="260" as="sourcePoint" />
          </mxGeometry>
        </mxCell>
        <mxCell id="rhkpsvwqHkgdm5iYqyDg-18" value="10" style="rounded=0;whiteSpace=wrap;html=1;fontSize=16;" vertex="1" parent="1">
          <mxGeometry x="749.8758465011286" y="240" width="40.12415349887133" height="40" as="geometry" />
        </mxCell>
        <mxCell id="rhkpsvwqHkgdm5iYqyDg-19" value="" style="endArrow=classic;html=1;rounded=0;entryX=0;entryY=0;entryDx=0;entryDy=0;fontSize=16;" edge="1" parent="1">
          <mxGeometry width="50" height="50" relative="1" as="geometry">
            <mxPoint x="625.0451467268622" y="210" as="sourcePoint" />
            <mxPoint x="625.0451467268622" y="240" as="targetPoint" />
          </mxGeometry>
        </mxCell>
        <mxCell id="rhkpsvwqHkgdm5iYqyDg-20" value="head" style="text;html=1;align=center;verticalAlign=middle;resizable=0;points=[];autosize=1;strokeColor=#d79b00;fillColor=#ffcd28;fontSize=16;gradientColor=#ffa500;" vertex="1" parent="1">
          <mxGeometry x="602.7539503386004" y="190" width="50" height="20" as="geometry" />
        </mxCell>
        <mxCell id="rhkpsvwqHkgdm5iYqyDg-21" value="" style="shape=curlyBracket;whiteSpace=wrap;html=1;rounded=1;flipH=1;fontSize=16;rotation=90;" vertex="1" parent="1">
          <mxGeometry x="688.27" y="215" width="20.06" height="152.5" as="geometry" />
        </mxCell>
        <mxCell id="rhkpsvwqHkgdm5iYqyDg-22" style="edgeStyle=orthogonalEdgeStyle;rounded=0;orthogonalLoop=1;jettySize=auto;html=1;entryX=0;entryY=0.5;entryDx=0;entryDy=0;fontSize=16;" edge="1" parent="1" source="rhkpsvwqHkgdm5iYqyDg-23" target="rhkpsvwqHkgdm5iYqyDg-1">
          <mxGeometry relative="1" as="geometry" />
        </mxCell>
        <mxCell id="rhkpsvwqHkgdm5iYqyDg-23" value="LRU 链表" style="text;html=1;align=center;verticalAlign=middle;resizable=0;points=[];autosize=1;strokeColor=#36393d;fillColor=#ffff88;fontSize=16;" vertex="1" parent="1">
          <mxGeometry y="250" width="80" height="20" as="geometry" />
        </mxCell>
        <mxCell id="rhkpsvwqHkgdm5iYqyDg-24" value="" style="endArrow=classic;html=1;rounded=0;entryX=0;entryY=0;entryDx=0;entryDy=0;fontSize=16;" edge="1" parent="1">
          <mxGeometry width="50" height="50" relative="1" as="geometry">
            <mxPoint x="767.708803611738" y="210" as="sourcePoint" />
            <mxPoint x="767.708803611738" y="240" as="targetPoint" />
          </mxGeometry>
        </mxCell>
        <mxCell id="rhkpsvwqHkgdm5iYqyDg-25" value="tail" style="text;html=1;align=center;verticalAlign=middle;resizable=0;points=[];autosize=1;strokeColor=#d79b00;fillColor=#ffcd28;fontSize=16;gradientColor=#ffa500;" vertex="1" parent="1">
          <mxGeometry x="749.8758465011286" y="190" width="40" height="20" as="geometry" />
        </mxCell>
        <mxCell id="rhkpsvwqHkgdm5iYqyDg-26" value="4" style="rounded=0;whiteSpace=wrap;html=1;fontSize=16;" vertex="1" parent="1">
          <mxGeometry x="320.99322799097064" y="240" width="35.66591422121896" height="40" as="geometry" />
        </mxCell>
        <mxCell id="rhkpsvwqHkgdm5iYqyDg-27" value="5" style="rounded=0;whiteSpace=wrap;html=1;fontSize=16;" vertex="1" parent="1">
          <mxGeometry x="392.3250564334086" y="240" width="35.66591422121896" height="40" as="geometry" />
        </mxCell>
        <mxCell id="rhkpsvwqHkgdm5iYqyDg-28" style="edgeStyle=orthogonalEdgeStyle;rounded=0;orthogonalLoop=1;jettySize=auto;html=1;entryX=0;entryY=0.5;entryDx=0;entryDy=0;fontSize=16;" edge="1" parent="1" source="rhkpsvwqHkgdm5iYqyDg-26" target="rhkpsvwqHkgdm5iYqyDg-27">
          <mxGeometry relative="1" as="geometry" />
        </mxCell>
        <mxCell id="rhkpsvwqHkgdm5iYqyDg-29" value="6" style="rounded=0;whiteSpace=wrap;html=1;fontSize=16;" vertex="1" parent="1">
          <mxGeometry x="463.65688487584646" y="240" width="35.66591422121896" height="40" as="geometry" />
        </mxCell>
        <mxCell id="rhkpsvwqHkgdm5iYqyDg-30" style="edgeStyle=orthogonalEdgeStyle;rounded=0;orthogonalLoop=1;jettySize=auto;html=1;fontSize=16;" edge="1" parent="1" source="rhkpsvwqHkgdm5iYqyDg-27" target="rhkpsvwqHkgdm5iYqyDg-29">
          <mxGeometry relative="1" as="geometry" />
        </mxCell>
        <mxCell id="rhkpsvwqHkgdm5iYqyDg-31" style="edgeStyle=orthogonalEdgeStyle;rounded=0;orthogonalLoop=1;jettySize=auto;html=1;entryX=0;entryY=0.5;entryDx=0;entryDy=0;fontSize=16;" edge="1" parent="1" source="rhkpsvwqHkgdm5iYqyDg-32" target="rhkpsvwqHkgdm5iYqyDg-12">
          <mxGeometry relative="1" as="geometry" />
        </mxCell>
        <mxCell id="rhkpsvwqHkgdm5iYqyDg-32" value="7" style="rounded=0;whiteSpace=wrap;html=1;fontSize=16;" vertex="1" parent="1">
          <mxGeometry x="534.9887133182843" y="240" width="35.66591422121896" height="40" as="geometry" />
        </mxCell>
        <mxCell id="rhkpsvwqHkgdm5iYqyDg-33" style="edgeStyle=orthogonalEdgeStyle;rounded=0;orthogonalLoop=1;jettySize=auto;html=1;fontSize=16;" edge="1" parent="1" source="rhkpsvwqHkgdm5iYqyDg-29" target="rhkpsvwqHkgdm5iYqyDg-32">
          <mxGeometry relative="1" as="geometry" />
        </mxCell>
      </root>
    </mxGraphModel>
  </diagram>
</mxfile>
